# xmcd CD database file
#
# Track frame offsets:
#	150
#	12942
#	25985
#	40521
#	53976
#	72537
#	84907
#	101775
#	116050
#	127978
#	144466
#	158896
#
# Disc length: 2708 seconds
#
# Revision: 3
# Processed by: cddbd v1.5.2PL0 Copyright (c) Steve Scherf et al.
# Submitted via: CDex 1.51
#
DISCID=9d0a920c
DTITLE=Adam Harvey - Cowboy Dreams
DYEAR=2003
DGENRE=Country
TTITLE0=Love Bug
TTITLE1=Call It Love
TTITLE2=When Lonely Met Love
TTITLE3=Hush
TTITLE4=She Don't Know It Yet
TTITLE5=Cowboy For A Day
TTITLE6=Nobody Knows
TTITLE7=Louisiana Rendezvous
TTITLE8=A Little Unfair
TTITLE9=A Little More To It Than That
TTITLE10=Acting A Little Crazy
TTITLE11=Little Cowboy Dreams
EXTD=YEAR: 2003
EXTT0=
EXTT1=
EXTT2=
EXTT3=
EXTT4=
EXTT5=
EXTT6=
EXTT7=
EXTT8=
EXTT9=
EXTT10=
EXTT11=
PLAYORDER=
